name C:\Users\u0101727\Documents\MyRepositories\upper-imu-dc\Results\main_mocap_tracking\Case_10\FLX01_linearAccelerations_bodyFrame.mot
datacolumns 4
datarows 58
range 5.01000000 5.58000000
endheader 
time	radius_imu_x	radius_imu_y	radius_imu_z	
          5.01000000	         -2.07992978	          3.55210992	         10.07644259	
          5.02000000	         -1.91397738	          3.62030048	         10.13015137	
          5.03000000	         -1.79094279	          3.66019844	         10.16868036	
          5.04000000	         -1.77245663	          3.68089729	         10.17790488	
          5.05000000	         -1.88560340	          3.70168206	         10.14982401	
          5.06000000	         -2.10506364	          3.74530316	         10.08639319	
          5.07000000	         -2.36234662	          3.82767919	          9.99759292	
          5.08000000	         -2.57618644	          3.94965636	          9.89537426	
          5.09000000	         -2.68687568	          4.09571517	          9.78786315	
          5.10000000	         -2.67418442	          4.24065056	          9.67750192	
          5.11000000	         -2.55095959	          4.36109103	          9.56334959	
          5.12000000	         -2.33984570	          4.44642224	          9.44525316	
          5.13000000	         -2.05362253	          4.50375345	          9.32666515	
          5.14000000	         -1.69867138	          4.55404857	          9.21371595	
          5.15000000	         -1.29564896	          4.62123153	          9.11153586	
          5.16000000	         -0.89016108	          4.72034450	          9.02175608	
          5.17000000	         -0.53534360	          4.85094956	          8.94411627	
          5.18000000	         -0.25822835	          4.99834272	          8.88061097	
          5.19000000	         -0.03979396	          5.14156299	          8.83753773	
          5.20000000	          0.17706877	          5.26451242	          8.82347580	
          5.21000000	          0.46200985	          5.36449272	          8.84572004	
          5.22000000	          0.86876606	          5.45374080	          8.90792600	
          5.23000000	          1.41128210	          5.55401847	          9.00882560	
          5.24000000	          2.04948821	          5.68772580	          9.14053958	
          5.25000000	          2.69304895	          5.86981089	          9.28697437	
          5.26000000	          3.22812038	          6.10365809	          9.42502980	
          5.27000000	          3.55510069	          6.38153638	          9.52965651	
          5.28000000	          3.61632370	          6.68824942	          9.57999413	
          5.29000000	          3.40502611	          7.00677471	          9.56289835	
          5.30000000	          2.95791605	          7.32421192	          9.47231245	
          5.31000000	          2.33619965	          7.63496991	          9.30593730	
          5.32000000	          1.60381694	          7.93929581	          9.06247647	
          5.33000000	          0.81121262	          8.23848633	          8.74156831	
          5.34000000	         -0.01188540	          8.53007753	          8.34584089	
          5.35000000	         -0.85473207	          8.80571674	          7.88317448	
          5.36000000	         -1.71865165	          9.05217938	          7.36747501	
          5.37000000	         -2.61059762	          9.25444442	          6.81714865	
          5.38000000	         -3.53928843	          9.39901133	          6.25194220	
          5.39000000	         -4.51179269	          9.47625142	          5.69027626	
          5.40000000	         -5.53518246	          9.48226957	          5.14484709	
          5.41000000	         -6.61026570	          9.41951347	          4.62497428	
          5.42000000	         -7.73698173	          9.30088405	          4.13157761	
          5.43000000	         -8.90100837	          9.14658080	          3.66295930	
          5.44000000	        -10.07197761	          8.98261376	          3.21424900	
          5.45000000	        -11.20495375	          8.83495883	          2.77996299	
          5.46000000	        -12.24445213	          8.72018223	          2.35229095	
          5.47000000	        -13.12752764	          8.65432125	          1.93273384	
          5.48000000	        -13.78545944	          8.63188478	          1.50464344	
          5.49000000	        -14.18836087	          8.62192385	          1.17828094	
          5.50000000	        -14.34460980	          8.65097755	          0.75745309	
          5.51000000	        -14.11478625	          8.61450815	          0.32979060	
          5.52000000	        -14.17533843	          8.64517994	          0.09418978	
          5.53000000	        -13.42279688	          8.93384632	         -0.20283095	
          5.54000000	        -12.56220797	          8.96146671	         -0.33254220	
          5.55000000	        -11.90572490	          9.28547504	         -0.41906053	
          5.56000000	        -10.85174644	          9.44887612	         -0.39192077	
          5.57000000	         -9.83836315	          9.83768220	         -0.26648593	
          5.58000000	         -8.72893071	         10.21802781	          0.19664512	
